<svg width="23" height="26" viewBox="0 0 23 26" fill="none" xmlns="http://www.w3.org/2000/svg">
<path d="M13.5545 17.2695C13.4616 17.1674 13.3316 17.0838 13.2109 17.0188C12.9323 16.8703 12.6352 16.7867 12.3287 16.7124V19.0338C12.8116 18.9781 13.378 18.8017 13.6287 18.3467C13.7495 18.1331 13.7773 17.8638 13.7216 17.6224C13.6937 17.4924 13.638 17.3717 13.5545 17.2695Z" fill="#36C942"/>
<path d="M10.0445 13.5553C9.9609 13.6761 9.90518 13.8153 9.8959 13.9639C9.87733 14.1125 9.88661 14.2796 9.94233 14.4189C9.99804 14.5489 10.1095 14.6511 10.2209 14.7253C10.3509 14.8182 10.4902 14.8832 10.6388 14.9389C10.7595 14.9853 10.8988 15.0318 11.0473 15.0782V12.9703C10.6759 13.0539 10.2673 13.2211 10.0445 13.5553Z" fill="#36C942"/>
<path d="M13.1457 5.6533C15.1236 3.99116 16.4422 0.249012 15.6343 0.0818696C14.5572 -0.131702 12.2079 0.815441 11.075 0.982584C9.45931 1.18687 7.70431 -0.753845 6.72931 0.332584C5.92145 1.20544 7.29573 4.39973 9.45002 5.79258C3.03359 8.94044 -5.97355 24.754 9.74716 25.9054C31.485 27.4933 20.6022 8.72687 13.1457 5.6533ZM15.0122 18.124C14.9472 18.7369 14.6222 19.294 14.13 19.6747C13.61 20.074 12.9693 20.2597 12.3286 20.3154V20.9933C12.3286 21.179 12.245 21.3554 12.115 21.4762C11.9293 21.6433 11.6507 21.6804 11.4279 21.5783C11.205 21.4762 11.0564 21.244 11.0564 20.9933V20.2504C10.945 20.2319 10.8336 20.204 10.7314 20.1762C10.1279 20.009 9.57073 19.6933 9.17145 19.2104C8.96716 18.969 8.80002 18.6997 8.68859 18.4119C8.66073 18.3376 8.63288 18.254 8.60502 18.1797C8.58645 18.1054 8.55859 18.0404 8.55859 17.9662C8.54931 17.8454 8.56788 17.7154 8.62359 17.604C8.74431 17.3812 8.99502 17.2419 9.24573 17.2604C9.49645 17.279 9.71931 17.4554 9.79359 17.6969C9.82145 17.7712 9.83073 17.8454 9.85859 17.9197C9.88645 17.994 9.9143 18.059 9.96073 18.1333C10.035 18.2633 10.1279 18.384 10.2393 18.4954C10.4622 18.709 10.75 18.8576 11.0564 18.9412V16.4062C10.4714 16.2576 9.86788 16.0626 9.37573 15.6819C9.14359 15.4962 8.93931 15.2733 8.80931 15.004C8.67002 14.7162 8.61431 14.4004 8.61431 14.0847C8.61431 13.769 8.67002 13.444 8.80931 13.1562C8.93002 12.8869 9.11573 12.6362 9.33859 12.4319C9.81216 11.9954 10.4343 11.754 11.0657 11.6704V10.9647C11.0657 10.779 11.1493 10.6026 11.2793 10.4819C11.465 10.3147 11.7436 10.2776 11.9664 10.3797C12.1893 10.4819 12.3379 10.714 12.3379 10.9647V11.6704C12.4214 11.6797 12.505 11.6983 12.5886 11.7076C13.2014 11.819 13.805 12.0697 14.26 12.5154C14.4736 12.729 14.65 12.9797 14.7707 13.249C14.8079 13.3233 14.8357 13.4069 14.8636 13.4812C14.8914 13.5554 14.91 13.6297 14.9193 13.7133C14.9379 13.834 14.9193 13.964 14.8636 14.0754C14.7522 14.3076 14.5107 14.4562 14.26 14.4469C14.0093 14.4376 13.7772 14.2704 13.6936 14.0383C13.6657 13.964 13.6564 13.899 13.6286 13.8247C13.6007 13.7504 13.5636 13.6854 13.5264 13.6204C13.4429 13.4997 13.3407 13.3883 13.22 13.3047C12.96 13.119 12.6536 13.0169 12.3379 12.9612V15.3847C12.7093 15.4776 13.0807 15.5704 13.4336 15.7097C13.9722 15.9233 14.4736 16.2483 14.7707 16.7497C14.7243 16.6662 14.6779 16.5919 14.7707 16.7497C14.8636 16.9076 14.8172 16.8333 14.7707 16.7497C14.9843 17.1676 15.0586 17.6597 15.0122 18.124Z" fill="#36C942"/>
</svg>
