<svg width="18" height="29" viewBox="0 0 18 29" fill="none" xmlns="http://www.w3.org/2000/svg">
<path d="M14.572 6.06096C12.3685 8.83967 14.3155 10.1261 12.7008 12.8938C13.6472 9.1962 8.19269 4.30773 11.4257 0C5.79774 3.14994 7.47023 9.44981 4.8441 14.1913C6.02893 12.0411 4.24446 7.47237 2.23965 6.06832C4.67432 9.60786 -0.260052 15.3049 0.0108693 20.4176C0.173422 27.7981 9.8435 32.1389 15.2475 26.2617C22.3601 18.5284 13.286 13.2834 14.572 6.06096ZM6.00364 22.803V22.7847C6.00364 22.77 6.00364 22.7589 6.00726 22.7442C6.00726 22.7332 6.01087 22.7259 6.01087 22.7148C6.01448 22.6891 6.01809 22.667 6.01809 22.6413V22.6376C6.02532 22.6082 6.02532 22.5752 6.02893 22.5494C6.03254 22.5384 6.03254 22.5347 6.03254 22.5311C6.39016 19.8001 8.71647 15.9335 9.71707 13.3863C9.63399 16.5436 13.6761 20.4801 11.0933 23.5786C12.0723 22.8949 12.932 22.079 13.6689 21.1343C14.2505 29.7608 5.37872 29.7425 6.00364 22.803Z" fill="#F74539"/>
</svg>
