<svg width="17" height="22" viewBox="0 0 17 22" fill="none" xmlns="http://www.w3.org/2000/svg">
<path d="M5.15661 10.6222V9.66836C5.15661 7.88939 6.60042 6.44557 8.37939 6.44557C7.30926 6.44557 6.44558 5.58189 6.44558 4.51176C6.44558 3.44163 7.30926 2.57795 8.37939 2.57795C9.44952 2.57795 10.3132 3.44163 10.3132 4.51176C10.3132 5.58155 9.44952 6.44557 8.37939 6.44557C10.1584 6.44557 11.6022 7.88939 11.6022 9.66836V10.6222C13.162 9.5782 14.1805 7.79924 14.1805 5.80108C14.1801 2.60376 11.576 0 8.37905 0C5.18241 0 2.57831 2.60376 2.57831 5.80108C2.57831 7.79889 3.59648 9.57786 5.15661 10.6222Z" fill="#D800F9"/>
<path d="M16.1136 15.5551H15.4691V13.6213C15.4691 13.2652 15.1807 12.9768 14.8246 12.9768H9.02387V11.5468C9.46912 11.4965 9.90303 11.415 10.3128 11.2667V9.668C10.3128 8.59787 9.44917 7.73419 8.37903 7.73419C7.3089 7.73419 6.44523 8.59787 6.44523 9.668V11.2667C6.85504 11.415 7.28894 11.4965 7.7342 11.5468V12.9768H1.93381C1.57767 12.9768 1.28932 13.2652 1.28932 13.6213V15.5551H0.644832C0.288351 15.5551 0 15.8435 0 16.1996V18.7775C0 19.1337 0.288351 19.422 0.644832 19.422H1.28932V21.3555C1.28932 21.7116 1.57767 22 1.93381 22C2.28995 22 2.5783 21.7116 2.5783 21.3555V19.422H3.22279C3.57892 19.422 3.86727 19.1337 3.86727 18.7775V16.1996C3.86727 15.8435 3.57892 15.5551 3.22279 15.5551H2.5783V14.2661H7.73489V15.5551H7.0904C6.73426 15.5551 6.44591 15.8435 6.44591 16.1996V18.7775C6.44591 19.1337 6.73426 19.422 7.0904 19.422H7.73489V21.3555C7.73489 21.7116 8.02324 22 8.37938 22C8.73586 22 9.02387 21.7116 9.02387 21.3555V19.422H9.66836C10.0245 19.422 10.3128 19.1337 10.3128 18.7775V16.1996C10.3128 15.8435 10.0245 15.5551 9.66836 15.5551H9.02387V14.2661H14.1801V15.5551H13.5356C13.1795 15.5551 12.8911 15.8435 12.8911 16.1996V18.7775C12.8911 19.1337 13.1795 19.422 13.5356 19.422H14.1801V21.3555C14.1801 21.7116 14.4685 22 14.8246 22C15.1811 22 15.4691 21.7116 15.4691 21.3555V19.422H16.1136C16.4697 19.422 16.7581 19.1337 16.7581 18.7775V16.1996C16.7581 15.8435 16.4701 15.5551 16.1136 15.5551Z" fill="#D800F9"/>
</svg>
