<svg width="25" height="20" viewBox="0 0 25 20" fill="none" xmlns="http://www.w3.org/2000/svg">
<path d="M15 4.5C14.4462 4.5 14 4.05385 14 3.5V2H10V3.5C10 4.05385 9.55385 4.5 9 4.5C8.44615 4.5 8 4.05385 8 3.5V2C8 0.9 8.9 0 10 0H14C15.1 0 16 0.9 16 2V3.5C16 4.05385 15.5538 4.5 15 4.5Z" fill="#0015FF"/>
<path d="M12.7077 13.3769C12.5308 13.4461 12.2692 13.5 12 13.5C11.7308 13.5 11.4692 13.4461 11.2308 13.3615L0 9.62305V17.2538C0 18.7692 1.23077 20 2.75385 20H21.2538C22.7769 20 24.0077 18.7692 24.0077 17.2461V9.61536L12.7077 13.3769Z" fill="#0015FF"/>
<path d="M24 5.74615V8.03846L12.2385 11.9615C12.1615 11.9923 12.0769 12 12 12C11.9231 12 11.8385 11.9923 11.7615 11.9615L0 8.03846V5.74615C0 4.23077 1.23077 3 2.75385 3H21.2538C22.7692 3 24 4.23077 24 5.74615Z" fill="#0015FF"/>
</svg>
